<?xml version="1.0" encoding="UTF-8"?>
<!DOCTYPE svg PUBLIC "-//W3C//DTD SVG 1.1//EN" "http://www.w3.org/Graphics/SVG/1.1/DTD/svg11.dtd">
<!-- Creator: CorelDRAW -->
<svg xmlns="http://www.w3.org/2000/svg" xml:space="preserve" width="200px" height="60px" version="1.1" style="shape-rendering:geometricPrecision; text-rendering:geometricPrecision; image-rendering:optimizeQuality; fill-rule:evenodd; clip-rule:evenodd"
viewBox="0 0 200 60"
 xmlns:xlink="http://www.w3.org/1999/xlink"
 xmlns:xodm="http://www.corel.com/coreldraw/odm/2003">
 <defs>
  <style type="text/css">
   <![CDATA[
    .fil3 {fill:black;fill-rule:nonzero}
    .fil1 {fill:#712CF9;fill-rule:nonzero}
    .fil4 {fill:#712CF9;fill-rule:nonzero}
    .fil2 {fill:white;fill-rule:nonzero}
    .fil0 {fill:url(#id0)}
    .fil5 {fill:url(#id1)}
   ]]>
  </style>
  <linearGradient id="id0" gradientUnits="userSpaceOnUse" x1="122.13" y1="17.52" x2="100.01" y2="17.52">
   <stop offset="0" style="stop-opacity:1; stop-color:#712CF9"/>
   <stop offset="1" style="stop-opacity:1; stop-color:#421A91"/>
  </linearGradient>
  <linearGradient id="id1" gradientUnits="userSpaceOnUse" xlink:href="#id0" x1="77.89" y1="15.61" x2="97.43" y2="15.61">
  </linearGradient>
 </defs>
 <g id="Camada_x0020_1">
  <metadata id="CorelCorpID_0Corel-Layer"/>
  <g id="_2106838845120">
   <polygon class="fil0" points="122.13,8.76 100.01,0 100.01,26.28 122.13,35.03 "/>
   <path class="fil1" d="M94.52 15.77l-8.94 3.9c0,0.74 0.11,1.34 0.34,1.79 0.22,0.46 0.53,0.78 0.92,0.96 0.37,0.18 0.82,0.24 1.34,0.19 0.52,-0.05 1.09,-0.21 1.71,-0.48 0.82,-0.36 1.65,-0.89 2.49,-1.58 0.84,-0.69 1.43,-1.28 1.79,-1.75l0.11 -0.05 0 2.23c-0.69,0.59 -1.4,1.13 -2.11,1.64 -0.72,0.51 -1.47,0.93 -2.26,1.28 -2.01,0.87 -3.58,1.01 -4.71,0.42 -1.13,-0.6 -1.69,-1.9 -1.69,-3.9 0,-1.98 0.54,-3.79 1.62,-5.42 1.09,-1.64 2.51,-2.84 4.27,-3.61 1.64,-0.71 2.9,-0.78 3.79,-0.21 0.89,0.57 1.33,1.73 1.33,3.48l0 1.11zm-1.98 -0.69c-0.01,-1.07 -0.28,-1.78 -0.81,-2.13 -0.53,-0.35 -1.34,-0.29 -2.43,0.18 -1.1,0.48 -1.97,1.18 -2.62,2.1 -0.65,0.93 -1.01,1.89 -1.1,2.88l6.96 -3.03z"/>
   <path class="fil2" d="M106.43 21.27c0.65,0.6 1.28,1.12 1.88,1.56 0.59,0.43 1.22,0.79 1.89,1.08 0.85,0.37 1.63,0.59 2.34,0.65 0.7,0.06 1.31,-0.06 1.82,-0.34 0.51,-0.28 0.91,-0.75 1.19,-1.4 0.28,-0.65 0.42,-1.49 0.42,-2.53 0,-1.92 -0.53,-3.66 -1.59,-5.22 -1.05,-1.55 -2.45,-2.71 -4.18,-3.46 -0.68,-0.3 -1.34,-0.49 -1.99,-0.58 -0.65,-0.1 -1.24,-0.13 -1.78,-0.09l0 2.2 0.1 0.04c0.6,-0.2 1.23,-0.28 1.87,-0.26 0.64,0.04 1.27,0.18 1.88,0.45 1.12,0.49 2.01,1.25 2.66,2.29 0.65,1.03 0.98,2.28 0.98,3.74 0,1.41 -0.32,2.37 -0.96,2.85 -0.63,0.48 -1.53,0.47 -2.68,-0.03 -0.4,-0.17 -0.81,-0.4 -1.22,-0.68 -0.41,-0.29 -0.79,-0.59 -1.12,-0.9 -0.28,-0.27 -0.56,-0.54 -0.81,-0.82 -0.25,-0.27 -0.45,-0.49 -0.6,-0.68l-0.1 -0.04 0 2.17z"/>
   <g>
    <path class="fil3" d="M0.18 49.62c0,-2 0.71,-3.64 2.11,-4.9 1.15,-1.04 2.64,-1.56 4.45,-1.56 1.74,0 3.22,0.55 4.46,1.67 1.16,1.04 1.73,2.64 1.73,4.79l-10.02 0c0,1.56 0.41,2.72 1.23,3.46 0.75,0.67 1.7,1.01 2.85,1.01 1.16,0 1.98,-0.23 2.48,-0.67 0.57,-0.52 0.86,-1.12 0.86,-1.79l2.73 0c-0.33,1.34 -0.87,2.34 -1.61,3.02 -1.07,0.96 -2.56,1.45 -4.46,1.45 -1.98,0 -3.58,-0.57 -4.83,-1.68 -1.32,-1.19 -1.98,-2.79 -1.98,-4.8zm6.44 -4.57c-0.99,0 -1.82,0.3 -2.48,0.9 -0.57,0.51 -0.94,1.15 -1.11,1.89l7.06 0c0,-0.74 -0.33,-1.41 -0.99,-2.01 -0.58,-0.52 -1.41,-0.78 -2.48,-0.78zm12 14.95l-2.47 0 0 -16.62 2.47 0 0 1.45c1,-1.12 2.27,-1.67 3.84,-1.67 1.74,0 3.14,0.48 4.21,1.44 1.32,1.19 1.98,2.87 1.98,5.02 0,2.24 -0.66,3.94 -1.98,5.14 -1.07,0.96 -2.47,1.45 -4.21,1.45 -1.73,0 -3.01,-0.6 -3.84,-1.79l0 5.58zm3.84 -14.84c-0.99,0 -1.86,0.34 -2.59,1.01 -0.83,0.74 -1.25,1.63 -1.25,2.67l0 1.57c0,1.04 0.46,1.97 1.37,2.78 0.74,0.67 1.56,1.01 2.47,1.01 0.83,0 1.53,-0.26 2.1,-0.78 0.91,-0.82 1.37,-2.08 1.37,-3.8 0,-1.63 -0.42,-2.82 -1.24,-3.56 -0.66,-0.6 -1.4,-0.9 -2.23,-0.9zm9.66 -1.78l2.47 0 0 8.36c0,0.9 0.25,1.57 0.75,2.01 0.41,0.37 0.98,0.56 1.73,0.56 1.07,0 2.02,-0.37 2.84,-1.12 1.24,-1.11 1.86,-2.26 1.86,-3.45l0 -6.36 2.47 0 0 12.49 -2.47 0 0 -2.23c-1.32,1.64 -2.93,2.46 -4.82,2.46 -1.74,0 -2.98,-0.34 -3.72,-1.01 -0.74,-0.67 -1.11,-1.53 -1.11,-2.56l0 -9.15zm15.59 -6.58l2.47 0 0 8.03c1.08,-1.19 2.4,-1.79 3.96,-1.79 1.66,0 3.02,0.49 4.09,1.45 1.32,1.19 1.98,2.9 1.98,5.13 0,2.16 -0.66,3.84 -1.98,5.03 -1.07,0.96 -2.48,1.45 -4.21,1.45 -1.81,0 -3.09,-0.6 -3.84,-1.79l0 1.56 -2.47 0 0 -19.07zm6.31 8.25c-0.98,0 -1.89,0.37 -2.72,1.12 -0.74,0.66 -1.12,1.6 -1.12,2.79l0 1.34c0,1.11 0.42,2.04 1.24,2.78 0.74,0.67 1.62,1.01 2.6,1.01 0.83,0 1.53,-0.26 2.1,-0.78 0.91,-0.82 1.37,-2.05 1.37,-3.69 0,-1.7 -0.42,-2.93 -1.24,-3.67 -0.66,-0.6 -1.4,-0.9 -2.23,-0.9z"/>
    <path class="fil4" d="M72.96 49.74c0,-2.01 0.66,-3.61 1.98,-4.8 1.24,-1.12 2.76,-1.67 4.57,-1.67 1.99,0 3.47,0.44 4.46,1.33 0.91,0.82 1.45,1.83 1.61,3.02l-2.72 0c-0.08,-0.6 -0.41,-1.16 -0.99,-1.67 -0.5,-0.45 -1.24,-0.68 -2.23,-0.68 -0.99,0 -1.81,0.3 -2.47,0.9 -0.99,0.89 -1.49,2.12 -1.49,3.68 0,1.49 0.46,2.64 1.36,3.46 0.66,0.59 1.49,0.89 2.47,0.89 1.16,0 2.07,-0.3 2.73,-0.89 0.66,-0.6 0.99,-1.38 0.99,-2.35l2.72 0c-0.08,1.57 -0.66,2.83 -1.73,3.8 -1.07,0.96 -2.64,1.45 -4.71,1.45 -1.73,0 -3.17,-0.52 -4.33,-1.56 -1.48,-1.34 -2.22,-2.98 -2.22,-4.91zm15.72 -0.12c0,-1.93 0.7,-3.53 2.1,-4.79 1.24,-1.12 2.77,-1.67 4.58,-1.67 1.81,0 3.34,0.55 4.58,1.67 1.4,1.26 2.1,2.86 2.1,4.79 0,1.94 -0.7,3.54 -2.1,4.8 -1.24,1.11 -2.77,1.68 -4.58,1.68 -1.81,0 -3.34,-0.57 -4.58,-1.68 -1.4,-1.26 -2.1,-2.86 -2.1,-4.8zm6.68 -4.46c-0.99,0 -1.81,0.3 -2.48,0.9 -0.99,0.89 -1.48,2.08 -1.48,3.56 0,1.49 0.45,2.65 1.36,3.46 0.74,0.67 1.61,1.01 2.6,1.01 0.99,0 1.85,-0.34 2.6,-1.01 0.91,-0.81 1.36,-1.97 1.36,-3.46 0,-1.48 -0.49,-2.67 -1.49,-3.56 -0.66,-0.6 -1.48,-0.9 -2.47,-0.9zm12.37 10.71l-2.47 0 0 -12.49 2.47 0 0 1.89c1.08,-1.41 2.32,-2.11 3.71,-2.11 1.57,0 2.77,0.37 3.6,1.11 0.41,0.37 0.74,0.78 0.99,1.23 1.07,-1.56 2.55,-2.34 4.45,-2.34 1.32,0 2.35,0.33 3.09,1 0.83,0.74 1.25,1.56 1.25,2.45l0 9.26 -2.48 0 0 -8.81c0,-0.45 -0.17,-0.82 -0.5,-1.11 -0.49,-0.45 -1.07,-0.68 -1.73,-0.68 -1.16,0 -2.1,0.34 -2.85,1.01 -0.66,0.59 -0.98,1.15 -0.98,1.67l0 7.92 -2.48 0 0 -8.7c0,-0.44 -0.25,-0.89 -0.74,-1.34 -0.42,-0.37 -1.03,-0.56 -1.86,-0.56 -0.91,0 -1.69,0.3 -2.35,0.9 -0.74,0.66 -1.12,1.3 -1.12,1.89l0 7.81zm23.02 4.13l-2.47 0 0 -16.62 2.47 0 0 1.45c0.99,-1.12 2.27,-1.67 3.84,-1.67 1.73,0 3.13,0.48 4.21,1.44 1.32,1.19 1.98,2.87 1.98,5.02 0,2.24 -0.66,3.94 -1.98,5.14 -1.08,0.96 -2.48,1.45 -4.21,1.45 -1.73,0 -3.01,-0.6 -3.84,-1.79l0 5.58zm3.84 -14.84c-0.99,0 -1.86,0.34 -2.6,1.01 -0.82,0.74 -1.24,1.63 -1.24,2.67l0 1.57c0,1.04 0.45,1.97 1.36,2.78 0.75,0.67 1.57,1.01 2.48,1.01 0.82,0 1.52,-0.26 2.1,-0.78 0.91,-0.82 1.36,-2.08 1.36,-3.8 0,-1.63 -0.41,-2.82 -1.23,-3.56 -0.66,-0.6 -1.41,-0.9 -2.23,-0.9zm9.16 4.46c0,-1.93 0.7,-3.53 2.1,-4.79 1.24,-1.12 2.77,-1.67 4.58,-1.67 1.82,0 3.34,0.55 4.58,1.67 1.4,1.26 2.1,2.86 2.1,4.79 0,1.94 -0.7,3.54 -2.1,4.8 -1.24,1.11 -2.76,1.68 -4.58,1.68 -1.81,0 -3.34,-0.57 -4.58,-1.68 -1.4,-1.26 -2.1,-2.86 -2.1,-4.8zm6.68 -4.46c-0.99,0 -1.81,0.3 -2.47,0.9 -0.99,0.89 -1.49,2.08 -1.49,3.56 0,1.49 0.45,2.65 1.36,3.46 0.75,0.67 1.61,1.01 2.6,1.01 0.99,0 1.86,-0.34 2.6,-1.01 0.91,-0.81 1.36,-1.97 1.36,-3.46 0,-1.48 -0.49,-2.67 -1.48,-3.56 -0.66,-0.6 -1.49,-0.9 -2.48,-0.9zm9.9 1.79c0,-0.97 0.37,-1.79 1.12,-2.46 0.99,-0.89 2.39,-1.33 4.2,-1.33 1.98,0 3.43,0.41 4.34,1.22 0.82,0.75 1.23,1.57 1.23,2.45l-2.47 0c-0.08,-0.51 -0.25,-0.88 -0.49,-1.11 -0.5,-0.45 -1.41,-0.67 -2.73,-0.67 -0.82,0 -1.48,0.22 -1.98,0.67 -0.41,0.37 -0.62,0.78 -0.62,1.23 0,0.29 0.12,0.56 0.37,0.78 0.33,0.3 1.36,0.63 3.1,1 1.07,0.23 1.98,0.45 2.72,0.67 0.66,0.22 1.15,0.49 1.48,0.78 0.66,0.6 0.99,1.3 0.99,2.12 0,0.89 -0.41,1.71 -1.23,2.46 -0.99,0.89 -2.52,1.34 -4.58,1.34 -2.07,0 -3.59,-0.45 -4.58,-1.34 -0.83,-0.75 -1.24,-1.68 -1.24,-2.79l2.48 0c0.08,0.67 0.29,1.15 0.61,1.45 0.58,0.52 1.45,0.78 2.6,0.78 1.41,0 2.36,-0.23 2.85,-0.67 0.33,-0.3 0.49,-0.67 0.49,-1.12 0,-0.29 -0.2,-0.63 -0.61,-1 -0.33,-0.3 -0.87,-0.52 -1.61,-0.67 -1.49,-0.3 -2.6,-0.56 -3.34,-0.78 -0.91,-0.22 -1.57,-0.52 -1.98,-0.89 -0.75,-0.67 -1.12,-1.38 -1.12,-2.12zm14.23 2.67c0,-2 0.71,-3.64 2.11,-4.9 1.15,-1.04 2.64,-1.56 4.45,-1.56 1.74,0 3.22,0.55 4.46,1.67 1.16,1.04 1.73,2.64 1.73,4.79l-10.02 0c0,1.56 0.41,2.72 1.24,3.46 0.74,0.67 1.69,1.01 2.84,1.01 1.16,0 1.98,-0.23 2.48,-0.67 0.57,-0.52 0.86,-1.12 0.86,-1.79l2.73 0c-0.33,1.34 -0.87,2.34 -1.61,3.02 -1.07,0.96 -2.56,1.45 -4.46,1.45 -1.98,0 -3.58,-0.57 -4.82,-1.68 -1.32,-1.19 -1.99,-2.79 -1.99,-4.8zm6.44 -4.57c-0.99,0 -1.81,0.3 -2.47,0.9 -0.58,0.51 -0.95,1.15 -1.12,1.89l7.06 0c0,-0.74 -0.33,-1.41 -0.99,-2.01 -0.58,-0.52 -1.41,-0.78 -2.48,-0.78zm13.49 -0.11c1.32,-1.19 3.1,-1.78 5.33,-1.78l0 2.45c-0.34,-0.07 -0.79,-0.11 -1.37,-0.11 -1.24,0 -2.39,0.48 -3.47,1.45 -0.9,0.82 -1.52,1.67 -1.85,2.56l0 6.36 -2.48 0 0 -12.49 2.48 0 0 3.12c0.41,-0.59 0.87,-1.11 1.36,-1.56z"/>
   </g>
   <polygon class="fil5" points="100.01,0 77.89,8.76 77.89,35.03 100.01,26.28 100.01,25.2 78.88,33.56 78.88,9.49 100.01,1.07 "/>
  </g>
 </g>
</svg>
